<?xml version="1.0" encoding="UTF-8"?>
<svg width="80px" height="80px" viewBox="0 0 80 80" version="1.1" xmlns="http://www.w3.org/2000/svg" xmlns:xlink="http://www.w3.org/1999/xlink">
    <title>Slice</title>
    <defs>
        <linearGradient x1="50%" y1="0%" x2="50%" y2="100%" id="linearGradient-1">
            <stop stop-color="#FF8300" offset="0%"></stop>
            <stop stop-color="#E75E80" offset="100%"></stop>
        </linearGradient>
        <path d="M20.596,56.96 L20.596,54.08 L20.524,53.18 C22.612,52.844 24.25,52.034 25.438,50.75 C26.626,49.466 27.22,47.852 27.22,45.908 C27.22,43.916 26.656,42.242 25.528,40.886 C24.4,39.53 22.756,38.552 20.596,37.952 L20.596,37.952 L17.716,37.16 C15.628,36.56 14.584,35.396 14.584,33.668 C14.584,32.756 14.92,32.024 15.592,31.472 C16.264,30.92 17.188,30.644 18.364,30.644 C19.468,30.644 20.38,30.92 21.1,31.472 C21.82,32.024 22.204,32.792 22.252,33.776 L22.252,33.776 L26.824,33.776 C26.728,31.856 26.104,30.296 24.952,29.096 C23.8,27.896 22.264,27.14 20.344,26.828 L20.344,26.828 L20.38,26.36 L20.38,23.48 L15.88,23.48 L15.88,26.36 L15.952,26.936 C14.104,27.344 12.664,28.154 11.632,29.366 C10.6,30.578 10.084,32.084 10.084,33.884 C10.084,37.796 12.316,40.364 16.78,41.588 L16.78,41.588 L19.516,42.38 C20.524,42.692 21.304,43.172 21.856,43.82 C22.408,44.468 22.684,45.236 22.684,46.124 C22.684,47.132 22.318,47.936 21.586,48.536 C20.854,49.136 19.828,49.436 18.508,49.436 C17.236,49.436 16.21,49.142 15.43,48.554 C14.65,47.966 14.236,47.156 14.188,46.124 L14.188,46.124 L9.58,46.124 C9.652,47.996 10.282,49.55 11.47,50.786 C12.658,52.022 14.236,52.82 16.204,53.18 L16.204,53.18 L16.096,54.08 L16.096,56.96 L20.596,56.96 Z M47.956,56.996 L47.956,52.82 L46.12,52.82 C45.28,52.82 44.614,52.598 44.122,52.154 C43.63,51.71 43.408,51.092 43.456,50.3 L43.456,50.3 L43.816,44.684 C43.888,43.34 43.504,42.254 42.664,41.426 C41.824,40.598 40.684,40.16 39.244,40.112 L39.244,40.112 L39.244,39.932 C40.66,39.884 41.794,39.464 42.646,38.672 C43.498,37.88 43.888,36.812 43.816,35.468 L43.816,35.468 L43.456,29.816 C43.408,28.928 43.624,28.28 44.104,27.872 C44.584,27.464 45.256,27.26 46.12,27.26 L46.12,27.26 L47.956,27.26 L47.956,23.12 L45.508,23.12 C44.476,23.12 43.546,23.264 42.718,23.552 C41.89,23.84 41.182,24.254 40.594,24.794 C40.006,25.334 39.568,25.988 39.28,26.756 C38.992,27.524 38.872,28.4 38.92,29.384 L38.92,29.384 L39.28,35.036 C39.424,37.004 38.44,37.988 36.328,37.988 L36.328,37.988 L32.044,37.988 L32.044,42.128 L36.328,42.128 C37.432,42.128 38.218,42.38 38.686,42.884 C39.154,43.388 39.352,44.132 39.28,45.116 L39.28,45.116 L38.92,50.588 C38.848,51.572 38.962,52.46 39.262,53.252 C39.562,54.044 40.006,54.716 40.594,55.268 C41.182,55.82 41.896,56.246 42.736,56.546 C43.576,56.846 44.5,56.996 45.508,56.996 L45.508,56.996 L47.956,56.996 Z M56.236,56.996 C57.244,56.996 58.168,56.852 59.008,56.564 C59.848,56.276 60.556,55.856 61.132,55.304 C61.708,54.752 62.14,54.086 62.428,53.306 C62.716,52.526 62.836,51.656 62.788,50.696 L62.788,50.696 L62.428,45.08 C62.284,43.088 63.268,42.092 65.38,42.092 L65.38,42.092 L69.664,42.092 L69.664,37.952 L65.38,37.952 C64.276,37.952 63.49,37.706 63.022,37.214 C62.554,36.722 62.356,35.984 62.428,35 L62.428,35 L62.788,29.492 C62.86,28.508 62.746,27.626 62.446,26.846 C62.146,26.066 61.702,25.4 61.114,24.848 C60.526,24.296 59.818,23.87 58.99,23.57 C58.162,23.27 57.244,23.12 56.236,23.12 L56.236,23.12 L53.752,23.12 L53.752,27.26 L55.588,27.26 C56.428,27.26 57.1,27.482 57.604,27.926 C58.108,28.37 58.336,29 58.288,29.816 L58.288,29.816 L57.928,35.432 C57.832,36.776 58.204,37.862 59.044,38.69 C59.884,39.518 61.024,39.956 62.464,40.004 L62.464,40.004 L62.464,40.184 C61.048,40.232 59.914,40.652 59.062,41.444 C58.21,42.236 57.832,43.304 57.928,44.648 L57.928,44.648 L58.288,50.3 C58.336,51.164 58.114,51.8 57.622,52.208 C57.13,52.616 56.452,52.82 55.588,52.82 L55.588,52.82 L53.752,52.82 L53.752,56.996 L56.236,56.996 Z" id="path-2"></path>
    </defs>
    <g id="Page-1" stroke="none" stroke-width="1" fill="none" fill-rule="evenodd">
        <path d="M8.8,40.0952442 C8.8,30.9848843 12.778,22.8129306 19.018,17.1042931 L28.3,26.4101542 L28.3,2.95 L4.9,2.95 L13.48,11.5520566 C5.836,18.6683033 1,28.7952699 1,40.0952442 C1,60.3882776 16.405,77.0449871 36.1,79 L36.1,71.1017481 C20.734,69.1858355 8.8,56.0090488 8.8,40.0952442 Z M79,39.9047558 C79,19.6117224 63.595,2.95501285 43.9,1 L43.9,8.89825193 C59.266,10.8141645 71.2,23.9909512 71.2,39.9047558 C71.2,49.0151157 67.222,57.1870694 60.982,62.8957069 L51.7,53.5898458 L51.7,77.05 L75.1,77.05 L66.52,68.4479434 C74.164,61.3316967 79,51.2047301 79,39.9047558 Z" id="Shape" fill-opacity="0.5" fill="url(#linearGradient-1)" fill-rule="nonzero"></path>
        <g id="${}" fill-rule="nonzero">
            <use fill="#FFFFFF" xlink:href="#path-2"></use>
            <use fill="#389FD6" xlink:href="#path-2"></use>
        </g>
    </g>
</svg>